<svg width="40" height="50" viewBox="0 0 40 50" fill="none" xmlns="http://www.w3.org/2000/svg">
  <!-- Drop shadow -->
  <ellipse cx="20" cy="46" rx="10" ry="4" fill="black" opacity="0.3"/>
  
  <!-- Outer glow -->
  <path d="M20 0C8.954 0 0 8.954 0 20C0 31.046 20 50 20 50C20 50 40 31.046 40 20C40 8.954 31.046 0 20 0Z" fill="#4CAF50" opacity="0.3"/>
  
  <!-- Main pin shape - bigger -->
  <path d="M20 2C10.059 2 2 10.059 2 20C2 29.941 20 48 20 48C20 48 38 29.941 38 20C38 10.059 29.941 2 20 2Z" fill="#4CAF50"/>
  
  <!-- Inner circle -->
  <circle cx="20" cy="20" r="10" fill="white"/>
  
  <!-- Checkmark -->
  <path d="M14 20L18 24L26 16" stroke="#4CAF50" stroke-width="3" stroke-linecap="round" stroke-linejoin="round"/>
</svg>